<?xml version="1.0" standalone="no"?><!DOCTYPE svg PUBLIC "-//W3C//DTD SVG 1.1//EN" "http://www.w3.org/Graphics/SVG/1.1/DTD/svg11.dtd"><svg t="1563442512426" class="icon" viewBox="0 0 1024 1024" version="1.1" xmlns="http://www.w3.org/2000/svg" p-id="819" xmlns:xlink="http://www.w3.org/1999/xlink" width="200" height="200"><defs><style type="text/css"></style></defs><path d="M897.98 917.33c-4.61 0-9.21-1.76-12.73-5.27L650.21 677.01c-7.03-7.03-7.03-18.43 0-25.46 7.03-7.03 18.43-7.03 25.46 0L910.71 886.6c7.03 7.03 7.03 18.43 0 25.46a17.952 17.952 0 0 1-12.73 5.27zM432.45 767.01c-35.98 0-71.39-5.66-105.25-16.82-9.44-3.11-14.57-13.29-11.46-22.73 3.11-9.44 13.29-14.57 22.73-11.46 30.22 9.96 61.84 15.01 93.98 15.01 5.99 0 12.04-0.18 17.98-0.53 9.92-0.58 18.44 6.98 19.03 16.91 0.59 9.92-6.98 18.44-16.91 19.03-6.65 0.39-13.41 0.59-20.1 0.59z" fill="#353535" p-id="820"></path><path d="M556.08 742.09c-7.02 0-13.69-4.13-16.59-11-3.87-9.16 0.42-19.72 9.58-23.58 53.67-22.67 99.34-60.25 132.08-108.69 33.53-49.61 51.26-107.62 51.26-167.75 0-80.12-31.2-155.44-87.85-212.1-56.65-56.65-131.98-87.85-212.1-87.85s-155.44 31.2-212.1 87.85c-56.65 56.65-87.85 131.98-87.85 212.1 0 48.45 11.19 94.68 33.25 137.41 21.06 40.79 51.76 76.79 88.8 104.12 8 5.9 9.7 17.17 3.8 25.17-5.9 8-17.17 9.7-25.17 3.8-41.46-30.59-75.83-70.9-99.41-116.57-24.39-47.23-37.28-100.45-37.28-153.94 0-45.34 8.88-89.34 26.41-130.77 16.92-40.01 41.14-75.93 71.99-106.78 30.85-30.85 66.77-55.07 106.78-71.99C343.11 104 387.1 95.11 432.45 95.11s89.34 8.88 130.77 26.41c40.01 16.92 75.93 41.14 106.78 71.99 30.85 30.85 55.07 66.77 71.99 106.78 17.52 41.43 26.41 85.43 26.41 130.77 0 67.35-19.86 132.33-57.43 187.91-36.65 54.23-87.79 96.31-147.9 121.69-2.28 0.97-4.66 1.43-6.99 1.43z" fill="#353535" p-id="821"></path></svg>